<mxfile host="app.diagrams.net" modified="2022-02-16T05:22:37.358Z" agent="5.0 (Macintosh; Intel Mac OS X 10_15_7) AppleWebKit/537.36 (KHTML, like Gecko) Chrome/98.0.4758.80 Safari/537.36" etag="bNL0hWYm-tCyqnPv1zbQ" version="16.5.6" type="github">
  <diagram id="TSxa-5qWYG_7hiWKHgxk" name="Page-1">
    <mxGraphModel dx="881" dy="861" grid="1" gridSize="10" guides="1" tooltips="1" connect="1" arrows="1" fold="1" page="1" pageScale="1" pageWidth="827" pageHeight="1169" math="0" shadow="0">
      <root>
        <mxCell id="0" />
        <mxCell id="1" parent="0" />
        <mxCell id="ADlxo3nI8TgN2A9nGeq5-1" value="ユーザー" style="shape=umlActor;verticalLabelPosition=bottom;verticalAlign=top;html=1;" vertex="1" parent="1">
          <mxGeometry x="110" y="460" width="30" height="60" as="geometry" />
        </mxCell>
        <mxCell id="ADlxo3nI8TgN2A9nGeq5-2" value="ログイン&lt;br&gt;ページ" style="shape=umlBoundary;whiteSpace=wrap;html=1;" vertex="1" parent="1">
          <mxGeometry x="230" y="360" width="100" height="80" as="geometry" />
        </mxCell>
        <mxCell id="ADlxo3nI8TgN2A9nGeq5-3" value="ログインページを表示する" style="ellipse;shape=umlControl;whiteSpace=wrap;html=1;" vertex="1" parent="1">
          <mxGeometry x="110" y="250" width="70" height="80" as="geometry" />
        </mxCell>
        <mxCell id="ADlxo3nI8TgN2A9nGeq5-5" value="ユーザー名とパスワードを入力する" style="ellipse;shape=umlControl;whiteSpace=wrap;html=1;" vertex="1" parent="1">
          <mxGeometry x="400" y="240" width="70" height="80" as="geometry" />
        </mxCell>
        <mxCell id="ADlxo3nI8TgN2A9nGeq5-6" value="アカウントは存在するか？" style="ellipse;shape=umlControl;whiteSpace=wrap;html=1;" vertex="1" parent="1">
          <mxGeometry x="480" y="350" width="70" height="80" as="geometry" />
        </mxCell>
      </root>
    </mxGraphModel>
  </diagram>
</mxfile>
